<mxfile host="app.diagrams.net" agent="Mozilla/5.0 (Windows NT 10.0; Win64; x64) AppleWebKit/537.36 (KHTML, like Gecko) Chrome/138.0.0.0 Safari/537.36" version="28.1.1">
  <diagram name="Page-1" id="_I75NAIed_qJoepMpIC1">
    <mxGraphModel dx="2745" dy="973" grid="1" gridSize="10" guides="1" tooltips="1" connect="1" arrows="1" fold="1" page="1" pageScale="1" pageWidth="850" pageHeight="1100" math="0" shadow="0">
      <root>
        <mxCell id="0" />
        <mxCell id="1" parent="0" />
        <mxCell id="NdJnCDBjPayFXjqzzkJ--1" value="" style="rounded=0;whiteSpace=wrap;html=1;" vertex="1" parent="1">
          <mxGeometry x="-710" y="70" width="1210" height="550" as="geometry" />
        </mxCell>
        <mxCell id="NdJnCDBjPayFXjqzzkJ--2" value="WorkerNode" style="swimlane;whiteSpace=wrap;html=1;fillColor=#dae8fc;strokeColor=#6c8ebf;fontSize=18;" vertex="1" parent="1">
          <mxGeometry x="-460" y="140" width="150" height="140" as="geometry" />
        </mxCell>
        <UserObject label="RSP" treeRoot="1" id="NdJnCDBjPayFXjqzzkJ--3">
          <mxCell style="whiteSpace=wrap;html=1;align=center;treeFolding=1;treeMoving=1;newEdgeStyle={&quot;edgeStyle&quot;:&quot;elbowEdgeStyle&quot;,&quot;startArrow&quot;:&quot;none&quot;,&quot;endArrow&quot;:&quot;none&quot;};fillColor=#f5f5f5;fontColor=#333333;strokeColor=#666666;fontSize=20;" vertex="1" parent="NdJnCDBjPayFXjqzzkJ--2">
            <mxGeometry x="15" y="50" width="120" height="60" as="geometry" />
          </mxCell>
        </UserObject>
        <mxCell id="NdJnCDBjPayFXjqzzkJ--4" value="MasterNode" style="swimlane;whiteSpace=wrap;html=1;fillColor=#fff2cc;strokeColor=#d6b656;fontSize=18;" vertex="1" parent="1">
          <mxGeometry x="-75" y="230" width="315" height="290" as="geometry" />
        </mxCell>
        <UserObject label="RSP" treeRoot="1" id="NdJnCDBjPayFXjqzzkJ--5">
          <mxCell style="whiteSpace=wrap;html=1;align=center;treeFolding=1;treeMoving=1;newEdgeStyle={&quot;edgeStyle&quot;:&quot;elbowEdgeStyle&quot;,&quot;startArrow&quot;:&quot;none&quot;,&quot;endArrow&quot;:&quot;none&quot;};fillColor=#f5f5f5;fontColor=#333333;strokeColor=#666666;fontSize=20;" vertex="1" parent="NdJnCDBjPayFXjqzzkJ--4">
            <mxGeometry x="25" y="40" width="135" height="100" as="geometry" />
          </mxCell>
        </UserObject>
        <mxCell id="NdJnCDBjPayFXjqzzkJ--6" value="UCI" style="rounded=0;whiteSpace=wrap;html=1;fontSize=20;" vertex="1" parent="NdJnCDBjPayFXjqzzkJ--4">
          <mxGeometry x="240" y="40" width="50" height="100" as="geometry" />
        </mxCell>
        <mxCell id="NdJnCDBjPayFXjqzzkJ--7" value="NodePlatform" style="shape=cylinder;whiteSpace=wrap;html=1;boundedLbl=1;backgroundOutline=1;fillColor=#d5e8d4;strokeColor=#82b366;fontSize=17;" vertex="1" parent="NdJnCDBjPayFXjqzzkJ--4">
          <mxGeometry x="180" y="210" width="110" height="65" as="geometry" />
        </mxCell>
        <mxCell id="NdJnCDBjPayFXjqzzkJ--8" value="DataBase" style="shape=datastore;whiteSpace=wrap;html=1;fillColor=#d5e8d4;strokeColor=#82b366;fontSize=17;" vertex="1" parent="NdJnCDBjPayFXjqzzkJ--4">
          <mxGeometry x="37.5" y="210" width="110" height="60" as="geometry" />
        </mxCell>
        <mxCell id="NdJnCDBjPayFXjqzzkJ--9" value="" style="endArrow=classic;startArrow=classic;html=1;rounded=0;fontSize=11;entryX=1;entryY=0.5;entryDx=0;entryDy=0;exitX=0;exitY=0.5;exitDx=0;exitDy=0;" edge="1" parent="NdJnCDBjPayFXjqzzkJ--4" source="NdJnCDBjPayFXjqzzkJ--6" target="NdJnCDBjPayFXjqzzkJ--5">
          <mxGeometry width="50" height="50" relative="1" as="geometry">
            <mxPoint x="103" y="220" as="sourcePoint" />
            <mxPoint x="103" y="150" as="targetPoint" />
          </mxGeometry>
        </mxCell>
        <mxCell id="NdJnCDBjPayFXjqzzkJ--10" style="edgeStyle=orthogonalEdgeStyle;rounded=0;orthogonalLoop=1;jettySize=auto;html=1;exitX=1;exitY=0.75;exitDx=0;exitDy=0;entryX=0.5;entryY=0;entryDx=0;entryDy=0;fontSize=11;startArrow=classic;startFill=1;" edge="1" parent="NdJnCDBjPayFXjqzzkJ--4" source="NdJnCDBjPayFXjqzzkJ--5" target="NdJnCDBjPayFXjqzzkJ--7">
          <mxGeometry relative="1" as="geometry">
            <mxPoint x="225" y="130" as="sourcePoint" />
            <mxPoint x="175" y="200" as="targetPoint" />
            <Array as="points">
              <mxPoint x="185" y="115" />
              <mxPoint x="185" y="170" />
              <mxPoint x="242" y="170" />
            </Array>
          </mxGeometry>
        </mxCell>
        <mxCell id="NdJnCDBjPayFXjqzzkJ--11" style="edgeStyle=orthogonalEdgeStyle;rounded=0;orthogonalLoop=1;jettySize=auto;html=1;entryX=1;entryY=0.5;entryDx=0;entryDy=0;strokeWidth=1;fontSize=11;startArrow=classic;startFill=1;" edge="1" parent="1" source="NdJnCDBjPayFXjqzzkJ--12" target="NdJnCDBjPayFXjqzzkJ--6">
          <mxGeometry relative="1" as="geometry" />
        </mxCell>
        <mxCell id="NdJnCDBjPayFXjqzzkJ--12" value="" style="shape=actor;whiteSpace=wrap;html=1;" vertex="1" parent="1">
          <mxGeometry x="440" y="260" width="40" height="60" as="geometry" />
        </mxCell>
        <mxCell id="NdJnCDBjPayFXjqzzkJ--13" style="edgeStyle=orthogonalEdgeStyle;rounded=0;orthogonalLoop=1;jettySize=auto;html=1;exitX=0;exitY=0.5;exitDx=0;exitDy=0;exitPerimeter=0;entryX=1;entryY=0.5;entryDx=0;entryDy=0;fontSize=11;" edge="1" parent="1" source="NdJnCDBjPayFXjqzzkJ--15" target="NdJnCDBjPayFXjqzzkJ--2">
          <mxGeometry relative="1" as="geometry">
            <mxPoint x="-250" y="289.9999999999999" as="sourcePoint" />
          </mxGeometry>
        </mxCell>
        <mxCell id="NdJnCDBjPayFXjqzzkJ--14" style="edgeStyle=orthogonalEdgeStyle;rounded=0;orthogonalLoop=1;jettySize=auto;html=1;fontSize=11;exitX=1;exitY=0.5;exitDx=0;exitDy=0;exitPerimeter=0;" edge="1" parent="1" source="NdJnCDBjPayFXjqzzkJ--15">
          <mxGeometry relative="1" as="geometry">
            <mxPoint x="-50" y="320" as="targetPoint" />
            <mxPoint x="-110" y="290" as="sourcePoint" />
          </mxGeometry>
        </mxCell>
        <mxCell id="NdJnCDBjPayFXjqzzkJ--15" value="Query/Stream" style="strokeWidth=2;html=1;shape=mxgraph.flowchart.direct_data;whiteSpace=wrap;sketch=0;fontSize=17;labelBackgroundColor=none;fillColor=#e1d5e7;strokeColor=#9673a6;" vertex="1" parent="1">
          <mxGeometry x="-280" y="260" width="160" height="60" as="geometry" />
        </mxCell>
        <mxCell id="NdJnCDBjPayFXjqzzkJ--16" value="Query/Stream" style="strokeWidth=2;html=1;shape=mxgraph.flowchart.direct_data;whiteSpace=wrap;sketch=0;fontSize=17;fillColor=#e1d5e7;strokeColor=#9673a6;" vertex="1" parent="1">
          <mxGeometry x="-260" y="440" width="160" height="60" as="geometry" />
        </mxCell>
        <mxCell id="NdJnCDBjPayFXjqzzkJ--17" value="WorkerNode" style="swimlane;whiteSpace=wrap;html=1;fillColor=#dae8fc;strokeColor=#6c8ebf;fontSize=18;" vertex="1" parent="1">
          <mxGeometry x="-460" y="470" width="150" height="140" as="geometry" />
        </mxCell>
        <UserObject label="RSP" treeRoot="1" id="NdJnCDBjPayFXjqzzkJ--18">
          <mxCell style="whiteSpace=wrap;html=1;align=center;treeFolding=1;treeMoving=1;newEdgeStyle={&quot;edgeStyle&quot;:&quot;elbowEdgeStyle&quot;,&quot;startArrow&quot;:&quot;none&quot;,&quot;endArrow&quot;:&quot;none&quot;};fillColor=#f5f5f5;fontColor=#333333;strokeColor=#666666;fontSize=20;" vertex="1" parent="NdJnCDBjPayFXjqzzkJ--17">
            <mxGeometry x="15" y="50" width="120" height="60" as="geometry" />
          </mxCell>
        </UserObject>
        <mxCell id="NdJnCDBjPayFXjqzzkJ--19" style="edgeStyle=orthogonalEdgeStyle;rounded=0;orthogonalLoop=1;jettySize=auto;html=1;exitX=0;exitY=0.5;exitDx=0;exitDy=0;exitPerimeter=0;entryX=1;entryY=0.5;entryDx=0;entryDy=0;fontSize=11;" edge="1" parent="1" source="NdJnCDBjPayFXjqzzkJ--16" target="NdJnCDBjPayFXjqzzkJ--17">
          <mxGeometry relative="1" as="geometry">
            <mxPoint x="-230" y="300" as="sourcePoint" />
            <mxPoint x="-300" y="370" as="targetPoint" />
          </mxGeometry>
        </mxCell>
        <mxCell id="NdJnCDBjPayFXjqzzkJ--20" style="edgeStyle=orthogonalEdgeStyle;rounded=0;orthogonalLoop=1;jettySize=auto;html=1;fontSize=11;exitX=1;exitY=0.5;exitDx=0;exitDy=0;exitPerimeter=0;entryX=0;entryY=0.5;entryDx=0;entryDy=0;" edge="1" parent="1" source="NdJnCDBjPayFXjqzzkJ--16" target="NdJnCDBjPayFXjqzzkJ--5">
          <mxGeometry relative="1" as="geometry">
            <mxPoint x="-40" y="330" as="targetPoint" />
            <mxPoint x="-130" y="300" as="sourcePoint" />
          </mxGeometry>
        </mxCell>
        <mxCell id="NdJnCDBjPayFXjqzzkJ--21" value="" style="endArrow=classic;startArrow=classic;html=1;rounded=0;fontSize=11;entryX=0.5;entryY=1;entryDx=0;entryDy=0;" edge="1" parent="1" target="NdJnCDBjPayFXjqzzkJ--5">
          <mxGeometry width="50" height="50" relative="1" as="geometry">
            <mxPoint x="18" y="440" as="sourcePoint" />
            <mxPoint x="70" y="530" as="targetPoint" />
          </mxGeometry>
        </mxCell>
        <mxCell id="NdJnCDBjPayFXjqzzkJ--22" style="edgeStyle=orthogonalEdgeStyle;rounded=0;orthogonalLoop=1;jettySize=auto;html=1;strokeWidth=1;fontSize=11;startArrow=classic;startFill=1;entryX=0;entryY=0.5;entryDx=0;entryDy=0;" edge="1" parent="1" source="NdJnCDBjPayFXjqzzkJ--23" target="NdJnCDBjPayFXjqzzkJ--2">
          <mxGeometry relative="1" as="geometry">
            <mxPoint x="-460" y="370" as="targetPoint" />
          </mxGeometry>
        </mxCell>
        <mxCell id="NdJnCDBjPayFXjqzzkJ--23" value="Sensor" style="rounded=0;whiteSpace=wrap;html=1;labelBackgroundColor=none;sketch=0;strokeWidth=2;fontSize=20;" vertex="1" parent="1">
          <mxGeometry x="-660" y="170" width="100" height="40" as="geometry" />
        </mxCell>
        <mxCell id="NdJnCDBjPayFXjqzzkJ--24" style="edgeStyle=orthogonalEdgeStyle;rounded=0;orthogonalLoop=1;jettySize=auto;html=1;strokeWidth=1;fontSize=11;startArrow=classic;startFill=1;" edge="1" parent="1" source="NdJnCDBjPayFXjqzzkJ--25">
          <mxGeometry relative="1" as="geometry">
            <mxPoint x="-460" y="530.0000000000001" as="targetPoint" />
          </mxGeometry>
        </mxCell>
        <mxCell id="NdJnCDBjPayFXjqzzkJ--25" value="Sensor" style="rounded=0;whiteSpace=wrap;html=1;labelBackgroundColor=none;sketch=0;strokeWidth=2;fontSize=20;" vertex="1" parent="1">
          <mxGeometry x="-640" y="530" width="100" height="40" as="geometry" />
        </mxCell>
        <mxCell id="NdJnCDBjPayFXjqzzkJ--47" value="CityOnto" style="ellipse;shape=cloud;whiteSpace=wrap;html=1;fillColor=#f8cecc;strokeColor=#b85450;fontSize=19;" vertex="1" parent="1">
          <mxGeometry x="16.5" y="70" width="132" height="95" as="geometry" />
        </mxCell>
        <mxCell id="NdJnCDBjPayFXjqzzkJ--48" style="edgeStyle=orthogonalEdgeStyle;rounded=0;orthogonalLoop=1;jettySize=auto;html=1;exitX=0.55;exitY=0.95;exitDx=0;exitDy=0;exitPerimeter=0;entryX=0.5;entryY=0;entryDx=0;entryDy=0;fontSize=11;" edge="1" parent="1" source="NdJnCDBjPayFXjqzzkJ--47" target="NdJnCDBjPayFXjqzzkJ--5">
          <mxGeometry relative="1" as="geometry">
            <mxPoint x="510" y="665" as="sourcePoint" />
            <mxPoint x="440" y="695" as="targetPoint" />
          </mxGeometry>
        </mxCell>
      </root>
    </mxGraphModel>
  </diagram>
</mxfile>
